<svg width="216" height="280" viewBox="0 0 216 280" fill="none" xmlns="http://www.w3.org/2000/svg">
<g clip-path="url(#clip0_53_1054)">
<path d="M216 180.718L177.324 152.513C177.324 152.513 155.171 114.906 151.416 90.8377C147.661 66.7693 130.764 23.8975 130.764 23.8975V1.33343C130.764 1.33343 111.238 -6.18794 109.736 14.4958C108.234 35.1796 113.867 61.8804 113.867 61.8804C113.867 61.8804 119.499 95.7266 106.732 104.376L60.1714 180.718C60.1714 180.718 104.855 221.709 139.775 226.974L216 280V180.718Z" fill="#FFB8B8"/>
<path d="M14.9248 72.5981H13.6499C2.16327 72.5981 -4.29353 86.1801 3.25419 94.8522C5.68349 97.6434 9.37588 99.5758 14.9248 99.6751V72.5981Z" fill="#FFB8B8"/>
<path d="M14.9248 99.6753H13.6499C2.16327 99.6753 -4.29353 113.257 3.25419 121.929C5.68349 124.721 9.37588 126.653 14.9248 126.752V99.6753Z" fill="#FFB8B8"/>
<path d="M14.9248 126.752H13.6499C2.16327 126.752 -4.29353 140.334 3.25419 149.006C5.68349 151.797 9.37588 153.73 14.9248 153.829V126.752Z" fill="#FFB8B8"/>
<path d="M14.9248 153.829H13.6499C2.16327 153.829 -4.29353 167.411 3.25419 176.083C5.68349 178.874 9.37588 180.807 14.9248 180.906V153.829Z" fill="#FFB8B8"/>
<path d="M114.618 66.1332H113.5V35.4729C113.5 33.1425 113.042 30.835 112.151 28.682C111.261 26.5291 109.956 24.5728 108.311 22.925C106.665 21.2772 104.712 19.9701 102.562 19.0783C100.413 18.1865 98.1088 17.7275 95.7821 17.7275H30.9239C28.5972 17.7275 26.2932 18.1865 24.1435 19.0783C21.9938 19.9701 20.0406 21.2772 18.3953 22.925C16.75 24.5728 15.4449 26.5291 14.5545 28.682C13.6641 30.835 13.2058 33.1425 13.2058 35.4729V203.678C13.2058 206.008 13.6641 208.315 14.5545 210.468C15.4449 212.621 16.75 214.578 18.3953 216.225C20.0406 217.873 21.9938 219.18 24.1435 220.072C26.2932 220.964 28.5972 221.423 30.9239 221.423H95.7821C98.1088 221.423 100.413 220.964 102.562 220.072C104.712 219.18 106.665 217.873 108.311 216.225C109.956 214.578 111.261 212.621 112.151 210.468C113.042 208.315 113.5 206.008 113.5 203.678V87.9577H114.618V66.1332Z" fill="#3F3D56"/>
<path d="M109.729 35.5969V203.553C109.726 205.517 109.289 207.457 108.449 209.232C107.608 211.007 106.386 212.573 104.87 213.819C104.534 214.095 104.185 214.352 103.822 214.59C101.653 216.038 99.1034 216.809 96.4964 216.805H31.3263C30.2698 216.807 29.2171 216.681 28.1909 216.429C25.311 215.726 22.7504 214.074 20.9195 211.739C19.0886 209.405 18.0936 206.522 18.094 203.553V35.5969C18.0943 32.0822 19.4885 28.7115 21.97 26.2262C24.4515 23.7409 27.8169 22.3446 31.3263 22.3442H39.2341C38.8447 23.3001 38.6961 24.3372 38.8013 25.3642C38.9065 26.3912 39.2623 27.3765 39.8373 28.2333C40.4123 29.0901 41.1889 29.7921 42.0987 30.2774C43.0084 30.7627 44.0234 31.0165 45.0542 31.0164H82.209C83.2394 31.0152 84.2538 30.7607 85.163 30.2751C86.0722 29.7895 86.8485 29.0878 87.4236 28.2314C87.9986 27.3751 88.3549 26.3904 88.4612 25.3639C88.5674 24.3374 88.4203 23.3005 88.0329 22.3442H96.4964C100.006 22.3446 103.371 23.7409 105.853 26.2262C108.334 28.7115 109.728 32.0821 109.729 35.5969Z" fill="#FFC107"/>
<path d="M50.2349 148.912C50.2349 148.912 56.6321 166.709 51.6565 176.675C46.6809 186.642 59.4753 198.032 59.4753 198.032C59.4753 198.032 92.883 180.947 88.6182 172.404C84.3534 163.861 77.2453 152.471 78.6669 145.352L50.2349 148.912Z" fill="#FFB8B8"/>
<path d="M62.6739 155.675C75.236 155.675 85.4195 145.475 85.4195 132.894C85.4195 120.313 75.236 110.113 62.6739 110.113C50.1118 110.113 39.9282 120.313 39.9282 132.894C39.9282 145.475 50.1118 155.675 62.6739 155.675Z" fill="#FFB8B8"/>
<path d="M106.897 212.831C106.299 213.596 105.619 214.292 104.87 214.907C104.534 215.182 104.185 215.44 103.822 215.678C101.723 217.077 99.2073 217.517 96.4963 217.517H38.9336L39.9287 189.846L46.327 175.608C47.7634 176.736 49.3007 177.73 50.9192 178.575C51.3023 178.782 51.7078 178.989 52.1321 179.192C58.1249 182.091 67.9215 184.641 77.4176 177.541C80.4065 175.307 83.3654 172.114 86.1703 167.677L103.901 177.744L104.832 188.65L106.897 212.831Z" fill="white"/>
<path d="M53.4914 164.954L52.6015 174.269L52.1321 179.192L51.4299 186.522L48.4298 217.893H31.3262C30.2697 217.895 29.2169 217.769 28.1908 217.517L21.447 186.285L21.6423 186.157L53.4914 164.954Z" fill="#2F2E41"/>
<path d="M109.729 171.354V204.64C109.726 206.605 109.288 208.544 108.448 210.319C107.608 212.094 106.386 213.661 104.87 214.907C104.534 215.182 104.185 215.44 103.822 215.678C101.653 217.126 99.1033 217.897 96.4963 217.893H73.6101C74.1095 207.374 74.9919 197.108 76.0245 188.165C76.4676 184.355 76.937 180.786 77.4176 177.541C78.9646 167.079 80.6243 159.975 81.8146 159.016L89.6849 164.217L109.729 171.354Z" fill="#2F2E41"/>
<path d="M37.796 211.914L36.9774 217.893H31.3263C30.2698 217.895 29.2171 217.769 28.1909 217.517C25.311 216.814 22.7504 215.162 20.9195 212.827C19.0886 210.492 18.0936 207.609 18.094 204.64V203.437L20.7374 186.284L21.6424 186.157L25.7127 185.574L37.796 211.914Z" fill="#2F2E41"/>
<path d="M109.729 175.694V204.64C109.726 206.605 109.289 208.544 108.449 210.319C107.608 212.094 106.386 213.661 104.87 214.907C104.534 215.182 104.185 215.44 103.822 215.678L100.345 200.522L104.832 188.65L109.729 175.694Z" fill="#2F2E41"/>
<path d="M84.3644 112.29C80.9249 106.696 75.541 102.574 69.249 100.717L64.6276 104.42L66.4243 100.101C64.9134 99.8701 63.3841 99.7816 61.8567 99.8366L57.6986 105.191L59.4196 100.02C52.2348 100.937 45.4043 104.857 41.2639 110.836C35.9717 118.479 35.0787 129.107 40.2838 136.81C41.7127 132.412 43.4469 128.285 44.8758 123.887C45.2054 124.028 46.4549 124.02 48.2613 123.904L49.9997 119.841L50.4853 123.732C55.8735 123.262 63.8655 122.23 68.9737 121.284L68.477 118.299L71.4488 120.779C73.0138 120.419 73.943 120.091 73.8662 119.841C77.6653 125.975 81.4296 129.893 85.2286 136.027C86.6707 127.375 89.2165 120.183 84.3644 112.29Z" fill="#2F2E41"/>
<path d="M83.1047 135.263C83.9551 135.263 84.6445 133.882 84.6445 132.179C84.6445 130.475 83.9551 129.094 83.1047 129.094C82.2543 129.094 81.5649 130.475 81.5649 132.179C81.5649 133.882 82.2543 135.263 83.1047 135.263Z" fill="#FFB8B8"/>
<path d="M133.204 212.684C148.861 212.684 161.554 184.229 161.554 149.128C161.554 114.028 148.861 85.5728 133.204 85.5728C117.547 85.5728 104.855 114.028 104.855 149.128C104.855 184.229 117.547 212.684 133.204 212.684Z" fill="#FFB8B8"/>
<path opacity="0.2" d="M31.2439 69.7781C29.7586 69.7781 28.3067 69.337 27.0717 68.5105C25.8367 67.6841 24.8742 66.5094 24.3058 65.135C23.7374 63.7607 23.5887 62.2484 23.8784 60.7894C24.1682 59.3304 24.8834 57.9902 25.9337 56.9383C26.984 55.8864 28.3221 55.1701 29.7789 54.8799C31.2356 54.5897 32.7456 54.7386 34.1178 55.3079C35.4901 55.8772 36.6629 56.8412 37.4881 58.0781C38.3133 59.315 38.7538 60.7691 38.7538 62.2567C38.7515 64.2508 37.9595 66.1626 36.5517 67.5726C35.1438 68.9826 33.235 69.7758 31.2439 69.7781ZM31.2439 55.4875C29.9072 55.4875 28.6004 55.8845 27.4889 56.6283C26.3775 57.3721 25.5112 58.4293 24.9996 59.6663C24.488 60.9032 24.3542 62.2642 24.615 63.5773C24.8758 64.8904 25.5195 66.0966 26.4647 67.0433C27.41 67.99 28.6143 68.6347 29.9254 68.8959C31.2365 69.1571 32.5954 69.023 33.8304 68.5107C35.0655 67.9983 36.121 67.1307 36.8637 66.0175C37.6064 64.9043 38.0028 63.5956 38.0028 62.2567C38.0008 60.462 37.288 58.7414 36.0209 57.4724C34.7539 56.2034 33.0359 55.4895 31.2439 55.4875Z" fill="black"/>
<path opacity="0.2" d="M28.24 61.5045C28.8621 61.5045 29.3665 60.9993 29.3665 60.3763C29.3665 59.7532 28.8621 59.248 28.24 59.248C27.6179 59.248 27.1135 59.7532 27.1135 60.3763C27.1135 60.9993 27.6179 61.5045 28.24 61.5045Z" fill="black"/>
<path opacity="0.2" d="M33.8723 61.5045C34.4945 61.5045 34.9988 60.9993 34.9988 60.3763C34.9988 59.7532 34.4945 59.248 33.8723 59.248C33.2502 59.248 32.7458 59.7532 32.7458 60.3763C32.7458 60.9993 33.2502 61.5045 33.8723 61.5045Z" fill="black"/>
<path opacity="0.2" d="M33.8724 64.8889H28.24C28.1404 64.8889 28.0449 64.8492 27.9745 64.7787C27.9041 64.7082 27.8645 64.6125 27.8645 64.5128C27.8645 64.413 27.9041 64.3174 27.9745 64.2469C28.0449 64.1763 28.1404 64.1367 28.24 64.1367H33.8724C33.9719 64.1367 34.0674 64.1763 34.1379 64.2469C34.2083 64.3174 34.2478 64.413 34.2478 64.5128C34.2478 64.6125 34.2083 64.7082 34.1379 64.7787C34.0674 64.8492 33.9719 64.8889 33.8724 64.8889Z" fill="black"/>
<path opacity="0.2" d="M96.5794 69.7781C95.0941 69.7781 93.6422 69.337 92.4072 68.5105C91.1722 67.6841 90.2096 66.5094 89.6412 65.135C89.0728 63.7607 88.9241 62.2484 89.2139 60.7894C89.5036 59.3304 90.2189 57.9902 91.2691 56.9383C92.3194 55.8864 93.6576 55.1701 95.1143 54.8799C96.5711 54.5897 98.081 54.7386 99.4533 55.3079C100.826 55.8772 101.998 56.8412 102.824 58.0781C103.649 59.315 104.089 60.7691 104.089 62.2567C104.087 64.2508 103.295 66.1626 101.887 67.5726C100.479 68.9827 98.5704 69.7758 96.5794 69.7781ZM96.5794 55.4875C95.2426 55.4875 93.9359 55.8845 92.8244 56.6283C91.7129 57.3721 90.8466 58.4293 90.335 59.6663C89.8235 60.9032 89.6896 62.2642 89.9504 63.5773C90.2112 64.8904 90.8549 66.0966 91.8002 67.0433C92.7454 67.99 93.9497 68.6347 95.2608 68.8959C96.5719 69.1571 97.9309 69.023 99.1659 68.5107C100.401 67.9983 101.456 67.1307 102.199 66.0175C102.942 64.9043 103.338 63.5956 103.338 62.2567C103.336 60.462 102.623 58.7415 101.356 57.4724C100.089 56.2034 98.3713 55.4895 96.5794 55.4875Z" fill="black"/>
<path opacity="0.2" d="M93.5754 61.5045C94.1976 61.5045 94.7019 60.9993 94.7019 60.3763C94.7019 59.7532 94.1976 59.248 93.5754 59.248C92.9533 59.248 92.449 59.7532 92.449 60.3763C92.449 60.9993 92.9533 61.5045 93.5754 61.5045Z" fill="black"/>
<path opacity="0.2" d="M99.2078 61.5045C99.8299 61.5045 100.334 60.9993 100.334 60.3763C100.334 59.7532 99.8299 59.248 99.2078 59.248C98.5856 59.248 98.0813 59.7532 98.0813 60.3763C98.0813 60.9993 98.5856 61.5045 99.2078 61.5045Z" fill="black"/>
<path opacity="0.2" d="M99.2075 65.6409C99.1418 65.6409 99.0773 65.6236 99.0204 65.5908C98.2343 65.0916 97.3225 64.8265 96.3916 64.8265C95.4607 64.8265 94.549 65.0916 93.7628 65.5908C93.7201 65.6156 93.6729 65.6317 93.6239 65.6381C93.575 65.6446 93.5252 65.6414 93.4775 65.6286C93.4298 65.6158 93.3851 65.5937 93.346 65.5635C93.3068 65.5334 93.274 65.4958 93.2493 65.4529C93.2247 65.4101 93.2087 65.3628 93.2023 65.3137C93.196 65.2647 93.1994 65.2149 93.2122 65.1671C93.2251 65.1194 93.2473 65.0746 93.2775 65.0355C93.3077 64.9963 93.3452 64.9635 93.3881 64.9389C94.2891 64.376 95.3297 64.0776 96.3916 64.0776C97.4536 64.0776 98.4942 64.376 99.3952 64.9389C99.4669 64.9803 99.523 65.0442 99.5547 65.1207C99.5864 65.1972 99.592 65.2821 99.5706 65.3622C99.5492 65.4422 99.502 65.513 99.4363 65.5634C99.3707 65.6138 99.2902 65.6411 99.2075 65.6409Z" fill="black"/>
<path d="M64.287 77.5272C61.2714 77.5272 58.3235 76.6315 55.8161 74.9536C53.3087 73.2756 51.3544 70.8907 50.2004 68.1003C49.0464 65.31 48.7445 62.2396 49.3328 59.2773C49.9211 56.3151 51.3732 53.5942 53.5056 51.4585C55.638 49.3229 58.3547 47.8685 61.3124 47.2793C64.2701 46.69 67.3358 46.9925 70.1218 48.1483C72.9079 49.3041 75.2892 51.2613 76.9646 53.7726C78.6399 56.2838 79.5342 59.2362 79.5342 62.2565C79.5295 66.3051 77.9217 70.1866 75.0633 73.0494C72.2049 75.9122 68.3294 77.5225 64.287 77.5272ZM64.287 48.5129C61.5729 48.5129 58.9198 49.319 56.6632 50.8291C54.4065 52.3393 52.6477 54.4857 51.6091 56.9971C50.5705 59.5084 50.2987 62.2717 50.8282 64.9377C51.3577 67.6037 52.6646 70.0526 54.5837 71.9747C56.5029 73.8968 58.948 75.2057 61.6099 75.736C64.2718 76.2663 67.0309 75.9941 69.5384 74.9539C72.0458 73.9137 74.189 72.1521 75.6968 69.892C77.2047 67.6319 78.0095 64.9747 78.0095 62.2565C78.0054 58.6127 76.5583 55.1194 73.9857 52.5429C71.4131 49.9663 67.9252 48.517 64.287 48.5129Z" fill="white"/>
<path d="M58.1882 60.7296C59.4513 60.7296 60.4753 59.7041 60.4753 58.439C60.4753 57.174 59.4513 56.1484 58.1882 56.1484C56.9251 56.1484 55.9011 57.174 55.9011 58.439C55.9011 59.7041 56.9251 60.7296 58.1882 60.7296Z" fill="white"/>
<path d="M69.6235 60.7296C70.8866 60.7296 71.9106 59.7041 71.9106 58.439C71.9106 57.174 70.8866 56.1484 69.6235 56.1484C68.3604 56.1484 67.3364 57.174 67.3364 58.439C67.3364 59.7041 68.3604 60.7296 69.6235 60.7296Z" fill="white"/>
<path d="M64.2952 69.7116C62.2445 69.7116 60.0706 68.9671 57.7735 67.4781C57.6041 67.3678 57.4854 67.1947 57.4434 66.9968C57.4014 66.799 57.4395 66.5925 57.5494 66.4228C57.6593 66.253 57.832 66.1339 58.0295 66.0916C58.227 66.0493 58.4332 66.0872 58.6029 66.1971C62.6436 68.8206 66.0865 68.8396 69.1307 66.2552C69.285 66.1246 69.4847 66.0606 69.686 66.0774C69.8873 66.0941 70.0737 66.1902 70.2043 66.3446C70.3349 66.4989 70.399 66.6988 70.3825 66.9004C70.3661 67.1021 70.2704 67.2889 70.1164 67.4199C68.3177 68.9477 66.372 69.7116 64.2952 69.7116Z" fill="white"/>
<path d="M89.4449 87.4529H79.5342V85.9262H87.9201V77.5273H89.4449V87.4529Z" fill="white"/>
<path d="M40.6539 46.9855H39.1292V37.0596H49.0399V38.5867H40.6539V46.9855Z" fill="white"/>
</g>
<defs>
<clipPath id="clip0_53_1054">
<rect width="216" height="280" fill="white"/>
</clipPath>
</defs>
</svg>
